<svg width="484.42739257812497px" height="121.39999999999999px" xmlns="http://www.w3.org/2000/svg" viewBox="7.786303710937517 14.300000000000004 484.42739257812497 121.39999999999999" style="background: rgba(0, 0, 0, 0);" preserveAspectRatio="xMidYMid"><defs><filter id="editing-vr"><feFlood flood-color="#f00" flood-opacity="0.7" result="c1"></feFlood><feFlood flood-color="#00f" flood-opacity="0.7" result="c3"></feFlood><feComposite operator="in" in="c1" in2="SourceAlpha" result="text-c1"></feComposite><feComposite operator="in" in="c3" in2="SourceAlpha" result="text-c3"></feComposite><feOffset in="text-c1" dx="5" dy="-1" result="text1"></feOffset><feOffset in="text-c3" dx="-5" dy="1" result="text3"></feOffset><feBlend in="SourceGraphic" in2="text1" mode="multiply" result="text4"></feBlend><feBlend in="text4" in2="text3" mode="multiply"></feBlend></filter></defs><g filter="url(#editing-vr)"><g transform="translate(81.58604955673218, 103.15999984741211)"><path d="M30.91-4.38L30.91-4.38L30.91-4.38Q28.22-1.66 24.54-0.19L24.54-0.19L24.54-0.19Q20.86 1.28 17.22 1.28L17.22 1.28L17.22 1.28Q13.57 1.28 12.29 0.64L12.29 0.64L10.30 11.52L-2.69 12.80L6.14-32.64L16.58-33.73L15.74-29.31L15.74-29.31Q18.43-33.86 24-33.86L24-33.86L24-33.86Q30.27-33.86 33.60-29.82L33.60-29.82L33.60-29.82Q36.54-26.18 36.54-20.61L36.54-20.61L36.54-20.61Q36.54-15.04 35.07-11.07L35.07-11.07L35.07-11.07Q33.60-7.10 30.91-4.38ZM16.45-22.34L13.06-3.58L13.06-3.58Q14.40-2.43 16.06-2.43L16.06-2.43L16.06-2.43Q17.73-2.43 18.69-3.07L18.69-3.07L18.69-3.07Q19.65-3.71 20.35-4.99L20.35-4.99L20.35-4.99Q22.27-8.45 23.81-18.94L23.81-18.94L23.81-18.94Q24.26-22.02 24.26-25.02L24.26-25.02L24.26-25.02Q24.26-28.03 23.58-28.99L23.58-28.99L23.58-28.99Q22.91-29.95 21.63-29.95L21.63-29.95L21.63-29.95Q17.73-29.95 16.45-22.34L16.45-22.34ZM60.42-17.98L60.42-17.98L60.42-17.98Q62.72-22.08 62.72-26.24L62.72-26.24L62.72-26.24Q62.72-28.99 60.74-28.99L60.74-28.99L60.74-28.99Q59.20-28.99 57.60-26.37L57.60-26.37L57.60-26.37Q55.94-23.74 55.42-20.35L55.42-20.35L52.10 0L38.85 1.28L45.38-32.64L55.94-33.92L54.78-27.46L54.78-27.46Q57.92-33.92 64.96-33.92L64.96-33.92L64.96-33.92Q68.67-33.92 70.69-32L70.69-32L70.69-32Q72.70-30.08 72.70-26.14L72.70-26.14L72.70-26.14Q72.70-22.21 70.11-19.71L70.11-19.71L70.11-19.71Q67.52-17.22 63.10-17.22L63.10-17.22L63.10-17.22Q61.18-17.22 60.42-17.98ZM87.68 1.28L87.68 1.28L87.68 1.28Q73.60 1.28 73.60-11.97L73.60-11.97L73.60-11.97Q73.60-21.38 78.78-27.46L78.78-27.46L78.78-27.46Q84.29-33.92 93.82-33.92L93.82-33.92L93.82-33.92Q100.74-33.92 104.26-30.72L104.26-30.72L104.26-30.72Q107.78-27.52 107.78-20.80L107.78-20.80L107.78-20.80Q107.78-10.56 102.27-4.61L102.27-4.61L102.27-4.61Q96.90 1.28 87.68 1.28ZM89.34-26.56L89.34-26.56L89.34-26.56Q88.58-24.83 87.97-22.24L87.97-22.24L87.97-22.24Q87.36-19.65 86.59-15.55L86.59-15.55L86.59-15.55Q85.82-11.46 85.82-6.40L85.82-6.40L85.82-6.40Q85.82-4.74 86.37-3.65L86.37-3.65L86.37-3.65Q86.91-2.56 88.38-2.56L88.38-2.56L88.38-2.56Q89.86-2.56 90.78-3.26L90.78-3.26L90.78-3.26Q91.71-3.97 92.42-5.63L92.42-5.63L92.42-5.63Q93.70-8.58 94.72-14.05L94.72-14.05L94.72-14.05Q95.74-19.52 95.84-21.89L95.84-21.89L95.84-21.89Q95.94-24.26 95.94-26.02L95.94-26.02L95.94-26.02Q95.94-27.78 95.42-28.93L95.42-28.93L95.42-28.93Q94.91-30.08 93.47-30.08L93.47-30.08L93.47-30.08Q92.03-30.08 91.07-29.18L91.07-29.18L91.07-29.18Q90.11-28.29 89.34-26.56ZM130.69-22.46L130.69-22.46L130.69-22.46Q131.58-24.83 131.58-26.88L131.58-26.88L131.58-26.88Q131.58-30.66 128.51-30.66L128.51-30.66L128.51-30.66Q126.91-30.66 125.60-29.22L125.60-29.22L125.60-29.22Q124.29-27.78 124.29-25.98L124.29-25.98L124.29-25.98Q124.29-24.70 125.31-23.68L125.31-23.68L125.31-23.68Q126.78-22.27 130.56-19.97L130.56-19.97L130.56-19.97Q134.34-17.66 135.78-15.78L135.78-15.78L135.78-15.78Q137.22-13.89 137.22-11.30L137.22-11.30L137.22-11.30Q137.22-8.70 135.97-6.34L135.97-6.34L135.97-6.34Q134.72-3.97 132.48-2.30L132.48-2.30L132.48-2.30Q127.68 1.28 120 1.28L120 1.28L120 1.28Q115.84 1.28 112.64-0.90L112.64-0.90L112.64-0.90Q109.44-3.01 109.44-5.50L109.44-5.50L109.44-5.50Q109.44-8 111.26-9.47L111.26-9.47L111.26-9.47Q113.09-10.94 115.78-10.94L115.78-10.94L115.78-10.94Q118.46-10.94 120.13-9.92L120.13-9.92L120.13-9.92Q119.30-7.81 119.30-6.40L119.30-6.40L119.30-6.40Q119.30-2.18 122.88-2.18L122.88-2.18L122.88-2.18Q124.42-2.18 125.44-3.14L125.44-3.14L125.44-3.14Q126.46-4.10 126.46-5.76L126.46-5.76L126.46-5.76Q126.46-9.02 120.96-12.48L120.96-12.48L120.96-12.48Q116.48-15.42 115.46-16.58L115.46-16.58L115.46-16.58Q113.73-18.62 113.73-21.18L113.73-21.18L113.73-21.18Q113.73-23.74 114.94-26.18L114.94-26.18L114.94-26.18Q116.16-28.61 118.40-30.34L118.40-30.34L118.40-30.34Q123.07-33.92 131.20-33.92L131.20-33.92L131.20-33.92Q135.36-33.92 137.82-32.26L137.82-32.26L137.82-32.26Q140.29-30.59 140.29-27.78L140.29-27.78L140.29-27.78Q140.29-24.96 138.59-23.36L138.59-23.36L138.59-23.36Q136.90-21.76 133.82-21.76L133.82-21.76L133.82-21.76Q131.71-21.76 130.69-22.46ZM143.68-6.40L143.68-6.40L143.68-6.40Q143.68-8.13 144.58-12.48L144.58-12.48L147.97-29.76L144.19-29.76L144.45-31.68L144.45-31.68Q152.13-33.98 159.55-39.62L159.55-39.62L162.62-39.62L161.09-32.64L166.08-32.64L165.50-29.76L160.58-29.76L157.31-12.48L157.31-12.48Q156.48-8.51 156.48-7.17L156.48-7.17L156.48-7.17Q156.48-4.10 159.17-3.46L159.17-3.46L159.17-3.46Q158.53-1.28 156.22 0L156.22 0L156.22 0Q153.92 1.28 150.66 1.28L150.66 1.28L150.66 1.28Q147.39 1.28 145.54-0.77L145.54-0.77L145.54-0.77Q143.68-2.82 143.68-6.40ZM168.29-1.92L168.29-1.92L168.29-1.92Q166.78-3.58 166.11-6.21L166.11-6.21L166.11-6.21Q165.44-8.83 165.44-13.12L165.44-13.12L165.44-13.12Q165.44-17.41 166.91-21.31L166.91-21.31L166.91-21.31Q168.38-25.22 171.07-28.03L171.07-28.03L171.07-28.03Q176.58-33.92 185.66-33.92L185.66-33.92L185.66-33.92Q188.93-33.92 191.30-32.83L191.30-32.83L202.24-33.92L197.50-8.96L197.50-8.96Q197.31-8.19 197.31-6.78L197.31-6.78L197.31-6.78Q197.31-5.38 198.18-4.48L198.18-4.48L198.18-4.48Q199.04-3.58 200.32-3.46L200.32-3.46L200.32-3.46Q199.68-1.28 197.34 0L197.34 0L197.34 0Q195.01 1.28 192.38 1.28L192.38 1.28L192.38 1.28Q189.76 1.28 188.00 0.29L188.00 0.29L188.00 0.29Q186.24-0.70 185.73-2.37L185.73-2.37L185.73-2.37Q184.70-0.77 182.53 0.26L182.53 0.26L182.53 0.26Q180.35 1.28 177.44 1.28L177.44 1.28L177.44 1.28Q174.53 1.28 172.16 0.51L172.16 0.51L172.16 0.51Q169.79-0.26 168.29-1.92ZM181.79-27.90L181.79-27.90L181.79-27.90Q181.06-26.75 180.42-24.80L180.42-24.80L180.42-24.80Q179.78-22.85 178.72-17.63L178.72-17.63L178.72-17.63Q177.66-12.42 177.66-8.70L177.66-8.70L177.66-8.70Q177.66-4.99 178.24-3.90L178.24-3.90L178.24-3.90Q178.82-2.82 179.84-2.82L179.84-2.82L179.84-2.82Q181.89-2.82 183.39-4.77L183.39-4.77L183.39-4.77Q184.90-6.72 185.47-10.18L185.47-10.18L188.86-28.93L188.86-28.93Q187.52-30.08 185.95-30.08L185.95-30.08L185.95-30.08Q184.38-30.08 183.46-29.57L183.46-29.57L183.46-29.57Q182.53-29.06 181.79-27.90ZM225.73-17.98L225.73-17.98L225.73-17.98Q228.03-22.08 228.03-26.24L228.03-26.24L228.03-26.24Q228.03-28.99 226.05-28.99L226.05-28.99L226.05-28.99Q224.51-28.99 222.91-26.37L222.91-26.37L222.91-26.37Q221.25-23.74 220.74-20.35L220.74-20.35L217.41 0L204.16 1.28L210.69-32.64L221.25-33.92L220.10-27.46L220.10-27.46Q223.23-33.92 230.27-33.92L230.27-33.92L230.27-33.92Q233.98-33.92 236.00-32L236.00-32L236.00-32Q238.02-30.08 238.02-26.14L238.02-26.14L238.02-26.14Q238.02-22.21 235.42-19.71L235.42-19.71L235.42-19.71Q232.83-17.22 228.42-17.22L228.42-17.22L228.42-17.22Q226.50-17.22 225.73-17.98ZM250.88 0.83L246.78 0.70L246.78 0.70Q244.80 0.64 242.72 0.64L242.72 0.64L242.72 0.64Q240.64 0.64 238.59 0.90L238.59 0.90L238.59 0.90Q238.34-0.13 238.34-1.34L238.34-1.34L238.34-1.34Q238.34-3.90 239.78-5.44L239.78-5.44L239.78-5.44Q241.22-6.98 243.46-6.98L243.46-6.98L246.91-6.98L252.29-31.17L252.29-31.17Q250.30-29.18 246.21-29.18L246.21-29.18L246.21-29.18Q244.16-29.18 242.56-31.10L242.56-31.10L242.56-31.10Q240.96-32.90 240.70-35.46L240.70-35.46L240.70-35.46Q250.18-37.12 264.32-43.46L264.32-43.46L266.37-41.02L260.16-6.98L261.76-6.98L261.76-6.98Q265.60-6.98 267.58-7.68L267.58-7.68L267.58-7.68Q268.42-6.27 268.42-3.97L268.42-3.97L268.42-3.97Q268.42-1.66 266.72-0.29L266.72-0.29L266.72-0.29Q265.02 1.09 262.21 1.09L262.21 1.09L262.21 1.09Q256.51 1.09 250.88 0.83L250.88 0.83ZM284.29 0.83L280.19 0.70L280.19 0.70Q278.21 0.64 276.13 0.64L276.13 0.64L276.13 0.64Q274.05 0.64 272.00 0.90L272.00 0.90L272.00 0.90Q271.74-0.13 271.74-1.34L271.74-1.34L271.74-1.34Q271.74-3.90 273.18-5.44L273.18-5.44L273.18-5.44Q274.62-6.98 276.86-6.98L276.86-6.98L280.32-6.98L285.70-31.17L285.70-31.17Q283.71-29.18 279.62-29.18L279.62-29.18L279.62-29.18Q277.57-29.18 275.97-31.10L275.97-31.10L275.97-31.10Q274.37-32.90 274.11-35.46L274.11-35.46L274.11-35.46Q283.58-37.12 297.73-43.46L297.73-43.46L299.78-41.02L293.57-6.98L295.17-6.98L295.17-6.98Q299.01-6.98 300.99-7.68L300.99-7.68L300.99-7.68Q301.82-6.27 301.82-3.97L301.82-3.97L301.82-3.97Q301.82-1.66 300.13-0.29L300.13-0.29L300.13-0.29Q298.43 1.09 295.62 1.09L295.62 1.09L295.62 1.09Q289.92 1.09 284.29 0.83L284.29 0.83ZM326.59-23.10L326.59-23.10L326.59-23.10Q335.04-20.93 335.04-12.67L335.04-12.67L335.04-12.67Q335.04-6.72 329.98-2.82L329.98-2.82L329.98-2.82Q324.61 1.28 315.78 1.28L315.78 1.28L315.78 1.28Q310.53 1.28 307.39-0.74L307.39-0.74L307.39-0.74Q304.26-2.75 304.26-6.08L304.26-6.08L304.26-6.08Q304.26-9.41 306.75-11.46L306.75-11.46L306.75-11.46Q308.03-9.09 310.30-8L310.30-8L310.30-8Q312.58-6.91 315.49-6.91L315.49-6.91L315.49-6.91Q318.40-6.91 320.26-8.45L320.26-8.45L320.26-8.45Q322.11-9.98 322.11-12.99L322.11-12.99L322.11-12.99Q322.11-18.69 314.30-18.69L314.30-18.69L315.39-24.45L315.39-24.45Q324.74-25.98 324.74-30.59L324.74-30.59L324.74-30.59Q324.74-32.45 323.46-33.47L323.46-33.47L323.46-33.47Q322.18-34.50 319.74-34.50L319.74-34.50L319.74-34.50Q315.46-34.50 311.68-30.53L311.68-30.53L311.68-30.53Q310.46-30.85 309.95-31.71L309.95-31.71L309.95-31.71Q309.44-32.58 309.44-34.37L309.44-34.37L309.44-34.37Q309.44-36.16 310.72-37.86L310.72-37.86L310.72-37.86Q312-39.55 314.24-40.83L314.24-40.83L314.24-40.83Q319.04-43.52 325.50-43.52L325.50-43.52L325.50-43.52Q330.43-43.52 333.57-40.96L333.57-40.96L333.57-40.96Q336.83-38.34 336.83-34.43L336.83-34.43L336.83-34.43Q336.83-30.91 334.02-27.84L334.02-27.84L334.02-27.84Q331.20-24.77 326.59-23.10Z" fill="#444"></path></g></g><style>text {
  font-size: 64px;
  font-family: Arial Black;
  dominant-baseline: central;
  text-anchor: middle;
}</style></svg>